HIERARCHY
ROOT Hips
{
    OFFSET 0.000000 0.000000 0.000000
    CHANNELS 6 Xposition Yposition Zposition Zrotation Xrotation Yrotation
    JOINT Spine
    {
        OFFSET -0.000000 14.517291 0.000000
        CHANNELS 3 Zrotation Xrotation Yrotation
        JOINT Spine1
        {
            OFFSET -0.000000 37.558300 0.000000
            CHANNELS 3 Zrotation Xrotation Yrotation
            JOINT Neck
            {
                OFFSET -0.000000 37.404057 3.400369
                CHANNELS 3 Zrotation Xrotation Yrotation
                JOINT Head
                {
                    OFFSET -0.000000 24.785618 -3.540803
                    CHANNELS 3 Zrotation Xrotation Yrotation
                    End Site
                    {
                        OFFSET -0.000000 35.408028 0.000000
                    }
                }
            }
            JOINT LeftShoulder
            {
                OFFSET 6.992933 33.973492 -0.192664
                CHANNELS 3 Zrotation Xrotation Yrotation
                JOINT LeftArm
                {
                    OFFSET 21.527611 0.000000 0.000000
                    CHANNELS 3 Zrotation Xrotation Yrotation
                    JOINT LeftForeArm
                    {
                        OFFSET 56.353916 0.000000 0.000000
                        CHANNELS 3 Zrotation Xrotation Yrotation
                        JOINT LeftHand
                        {
                            OFFSET 47.774071 0.000000 0.000000
                            CHANNELS 3 Zrotation Xrotation Yrotation
                            End Site
                            {
                                OFFSET 26.556021 0.000000 0.000000
                            }
                        }
                    }
                }
            }
            JOINT RightShoulder
            {
                OFFSET -7.065357 33.973492 -0.192664
                CHANNELS 3 Zrotation Xrotation Yrotation
                JOINT RightArm
                {
                    OFFSET -21.527611 0.000000 0.000000
                    CHANNELS 3 Zrotation Xrotation Yrotation
                    JOINT RightForeArm
                    {
                        OFFSET -56.353916 0.000000 0.000000
                        CHANNELS 3 Zrotation Xrotation Yrotation
                        JOINT RightHand
                        {
                            OFFSET -47.774071 0.000000 0.000000
                            CHANNELS 3 Zrotation Xrotation Yrotation
                            End Site
                            {
                                OFFSET -26.556021 0.000000 0.000000
                            }
                        }
                    }
                }
            }
        }
    }
    JOINT LeftUpLeg
    {
        OFFSET 17.704014 0.000000 0.000000
        CHANNELS 3 Zrotation Xrotation Yrotation
        JOINT LeftLeg
        {
            OFFSET -0.000000 -81.181816 0.000000
            CHANNELS 3 Zrotation Xrotation Yrotation
            JOINT LeftFoot
            {
                OFFSET -0.000000 -62.821102 0.000000
                CHANNELS 3 Zrotation Xrotation Yrotation
                JOINT LeftToeBase
                {
                    OFFSET -0.000000 -11.507608 26.556021
                    CHANNELS 3 Zrotation Xrotation Yrotation
                    End Site
                    {
                        OFFSET -0.000000 0.000000 7.081605
                    }
                }
            }
        }
    }
    JOINT RightUpLeg
    {
        OFFSET -17.704014 0.000000 0.000000
        CHANNELS 3 Zrotation Xrotation Yrotation
        JOINT RightLeg
        {
            OFFSET -0.000000 -81.181816 0.000000
            CHANNELS 3 Zrotation Xrotation Yrotation
            JOINT RightFoot
            {
                OFFSET -0.000000 -62.821102 0.000000
                CHANNELS 3 Zrotation Xrotation Yrotation
                JOINT RightToeBase
                {
                    OFFSET -0.000000 -11.507608 26.556021
                    CHANNELS 3 Zrotation Xrotation Yrotation
                    End Site
                    {
                        OFFSET -0.000000 0.000000 7.081605
                    }
                }
            }
        }
    }
}
MOTION
Frames:    11
Frame Time:    0.008333
22.043484    157.689850    46.621384    5.196011    2.352713    -68.369354    -0.396827    -0.590002    -0.225977    0.262722    -0.591265    -0.073904    19.530237    6.613255    14.243424    -13.791037    0.379765    11.174626    11.226049    2.800667    -14.724858    -10.932619    -2.474478    -22.360579    12.695818    0.384065    -45.979446    -5.549656    7.912766    -42.166958    -10.550858    -1.894442    -6.905784    30.064529    -25.134190    40.302002    6.261333    -23.314598    102.491669    17.913622    -25.823225    31.291340    25.250120    -17.095499    7.444710    -11.149531    14.637308    -6.325765    -16.643353    -3.880774    52.418007    0.000000    0.000000    0.000000    -20.957865    -6.160312    -11.642501    2.515912    9.004867    -11.560927    15.168425    2.545159    -1.690105    0.000000    0.000000    0.000000    
22.058989    157.692535    46.616840    5.204743    2.365720    -68.365654    -0.391017    -0.588039    -0.220289    0.258256    -0.611918    -0.072021    19.543814    6.588116    14.240572    -13.816130    0.412010    11.166250    11.236204    2.815346    -14.741636    -10.932313    -2.444750    -22.369143    12.690631    0.419487    -45.916264    -5.546082    7.937912    -42.202564    -10.551873    -1.897869    -6.915657    30.027706    -25.112873    40.278851    6.311654    -23.223368    102.544991    17.930336    -25.791243    31.301760    25.257622    -17.124203    7.488939    -11.130009    14.662710    -6.379402    -16.640810    -3.870267    52.420204    0.000000    0.000000    0.000000    -20.942316    -6.151661    -11.692474    2.497057    8.957782    -11.567324    15.187984    2.582288    -1.641375    0.000000    0.000000    0.000000    
22.074244    157.689835    46.614819    5.208277    2.377898    -68.364723    -0.375106    -0.584949    -0.205376    0.243233    -0.622848    -0.067319    19.553223    6.574805    14.224335    -13.845434    0.404526    11.141040    11.251288    2.810514    -14.768998    -10.924710    -2.412672    -22.371136    12.668589    0.472939    -45.845951    -5.525659    7.967904    -42.265266    -10.556429    -1.900069    -6.929471    29.977577    -25.108646    40.236702    6.341331    -23.125751    102.584557    17.936584    -25.730438    31.316715    25.274643    -17.153093    7.524809    -11.134452    14.695132    -6.406736    -16.646280    -3.886072    52.439610    0.000000    0.000000    0.000000    -20.934689    -6.149036    -11.704817    2.494775    8.929959    -11.602245    15.204940    2.607131    -1.594762    0.000000    0.000000    0.000000    
22.094086    157.682648    46.619137    5.213727    2.381211    -68.365990    -0.356669    -0.580784    -0.190837    0.215850    -0.623438    -0.062331    19.562355    6.548955    14.218022    -13.869637    0.397747    11.124767    11.264947    2.798709    -14.784755    -10.903362    -2.358219    -22.379812    12.668366    0.511160    -45.766281    -5.521597    7.998234    -42.347878    -10.573955    -1.912408    -6.949203    29.930153    -25.091064    40.191353    6.358367    -23.065268    102.620041    17.951626    -25.688875    31.330969    25.284466    -17.190527    7.567778    -11.133179    14.761531    -6.493572    -16.656891    -3.933784    52.481899    0.000000    0.000000    0.000000    -20.949614    -6.161442    -11.676325    2.516704    8.938062    -11.623865    15.213995    2.598205    -1.599628    0.000000    0.000000    0.000000    
22.108612    157.666962    46.623100    5.213010    2.387714    -68.367836    -0.343837    -0.592873    -0.177316    0.206200    -0.597801    -0.058505    19.541527    6.520376    14.211265    -13.854393    0.382280    11.114723    11.280246    2.783885    -14.812344    -10.882614    -2.283662    -22.361721    12.663655    0.498600    -45.693905    -5.754289    8.044880    -42.014126    -10.603090    -1.921018    -6.959453    29.889130    -25.117273    40.143433    6.404222    -22.967558    102.652191    17.943140    -25.652111    31.328022    25.307053    -17.225283    7.605229    -11.155920    14.829205    -6.522613    -16.633236    -3.951800    52.480988    0.000000    0.000000    0.000000    -20.963228    -6.179008    -11.652410    2.539784    8.975366    -11.635192    15.233154    2.557482    -1.594980    0.000000    0.000000    0.000000    
22.126692    157.652130    46.632683    5.214923    2.384039    -68.370514    -0.333009    -0.601339    -0.169476    0.187393    -0.574531    -0.055929    19.553383    6.494799    14.208983    -13.889415    0.381063    11.101618    11.283537    2.773705    -14.832420    -10.835302    -2.221211    -22.355011    12.649324    0.532586    -45.631699    -5.556014    8.009590    -42.391121    -10.626849    -1.930508    -6.957646    29.818249    -25.094185    40.084747    6.380993    -22.972979    102.662453    17.972078    -25.619339    31.362957    25.319302    -17.260292    7.626521    -11.183352    14.898183    -6.572742    -16.601042    -3.970117    52.508839    0.000000    0.000000    0.000000    -20.993563    -6.201894    -11.580309    2.572335    9.020012    -11.658634    15.247725    2.523792    -1.619933    0.000000    0.000000    0.000000    
22.143543    157.633759    46.645866    5.214804    2.380449    -68.370956    -0.317243    -0.609155    -0.166722    0.164767    -0.545207    -0.055081    19.529963    6.473593    14.201987    -13.873533    0.346462    11.090712    11.291988    2.758857    -14.834702    -10.794613    -2.148428    -22.348513    12.590071    0.509512    -45.565796    -5.671543    7.983979    -42.148106    -10.657329    -1.925515    -6.971685    29.784616    -25.112431    40.060074    6.398117    -22.944702    102.684509    17.976053    -25.611691    31.370771    25.330189    -17.293007    7.641868    -11.207171    14.966106    -6.614637    -16.584549    -4.017876    52.525215    0.000000    0.000000    0.000000    -21.028767    -6.229507    -11.468290    2.623491    9.085012    -11.710745    15.269435    2.467188    -1.669251    0.000000    0.000000    0.000000    
22.156174    157.612320    46.665283    5.204066    2.360258    -68.378250    -0.321511    -0.609620    -0.161669    0.160487    -0.513996    -0.053635    19.483614    6.459507    14.196210    -13.825462    0.319008    11.089849    11.291972    2.743390    -14.855355    -10.762400    -2.085004    -22.321854    12.577920    0.516336    -45.510868    -5.688673    7.989137    -42.218815    -10.692190    -1.912713    -6.975891    29.751556    -25.116884    40.047646    6.378599    -22.964825    102.680397    18.001200    -25.601749    31.372133    25.325125    -17.304951    7.663083    -11.228619    15.033866    -6.672753    -16.551308    -4.058266    52.567097    0.000000    0.000000    0.000000    -21.073549    -6.249756    -11.365600    2.661351    9.163742    -11.735839    15.278440    2.395708    -1.703171    0.000000    0.000000    0.000000    
22.165060    157.590683    46.688454    5.188407    2.339604    -68.387680    -0.319100    -0.615958    -0.168539    0.143923    -0.472047    -0.055160    19.491953    6.452425    14.204405    -13.845671    0.305743    11.091987    11.300518    2.739334    -14.853981    -10.738628    -2.048884    -22.300831    12.559465    0.535130    -45.464050    -5.681308    7.993800    -42.265259    -10.718887    -1.926105    -6.950444    29.713087    -25.125645    40.002884    6.367551    -22.964441    102.681282    17.951569    -25.603495    31.359993    25.319122    -17.305080    7.672228    -11.250498    15.095010    -6.726381    -16.514486    -4.113867    52.595646    0.000000    0.000000    0.000000    -21.117317    -6.263087    -11.234817    2.703000    9.233468    -11.765888    15.298969    2.332917    -1.762025    0.000000    0.000000    0.000000    
22.171963    157.566376    46.710545    5.179681    2.314415    -68.395927    -0.329262    -0.628915    -0.172651    0.140831    -0.427650    -0.057476    19.445608    6.425037    14.207438    -13.792807    0.298870    11.101150    11.292892    2.726337    -14.850281    -10.711460    -2.029478    -22.283808    12.517231    0.567198    -45.417416    -5.646825    7.992505    -42.334225    -10.756052    -1.922961    -6.961106    29.711962    -25.133614    40.018799    6.364433    -22.985035    102.674728    17.980619    -25.614052    31.344048    25.309799    -17.309740    7.661826    -11.285275    15.154543    -6.751279    -16.479742    -4.168119    52.615082    0.000000    0.000000    0.000000    -21.169188    -6.287560    -11.101419    2.750523    9.326513    -11.767797    15.313666    2.225166    -1.843060    0.000000    0.000000    0.000000    
22.178495    157.547760    46.732445    5.173127    2.287479    -68.407898    -0.352947    -0.642147    -0.183385    0.138852    -0.404361    -0.060487    19.450052    6.457871    14.202568    -13.792397    0.266938    11.097759    11.302620    2.735373    -14.848607    -10.710094    -2.031075    -22.265209    12.490214    0.603632    -45.386063    -5.625530    8.003960    -42.315010    -10.761083    -1.920515    -6.936513    29.685883    -25.131557    40.009861    6.352369    -23.022648    102.656296    17.949871    -25.641747    31.350687    25.297426    -17.310661    7.629132    -11.327063    15.193088    -6.709698    -16.449490    -4.191658    52.625557    0.000000    0.000000    0.000000    -21.219913    -6.316236    -10.989365    2.791164    9.419133    -11.737498    15.322489    2.131899    -1.948990    0.000000    0.000000    0.000000    
